<svg xmlns="http://www.w3.org/2000/svg" viewBox="0 0 64 64" role="img" aria-label="Poseidon Cruzeiros">
  <rect width="64" height="64" rx="14" fill="#0a2342"/>
  <path d="M8 48c7-6 13-6 20 0s13 6 20 0c3-3 6-4 8-4v8c-4 0-7 1-11 4-8 6-18 6-26 0-4-3-7-4-11-4z" fill="#1abc9c"/>
  <path d="M31.7 11c-2.8 0-5 2.1-5 4.7 0 2.1 1.4 3.8 3.3 4.5v19.1c-4.6-.7-8.1-4.6-8.1-9.4h4.8l-8.1-8.1-8.1 8.1h4.9c0 9 7.3 16.3 16.3 16.3S48 38.9 48 29.9h4.9l-8.1-8.1-8.1 8.1h4.8c0 4.8-3.5 8.7-8.1 9.4V20.2c1.9-.7 3.3-2.4 3.3-4.5 0-2.6-2.2-4.7-5-4.7zm0 3.3c.9 0 1.7.7 1.7 1.5 0 .9-.8 1.6-1.7 1.6s-1.7-.7-1.7-1.6c0-.8.8-1.5 1.7-1.5z" fill="#f0c040"/>
</svg>
